<svg xmlns="http://www.w3.org/2000/svg" width="150" height="100" fill="none" viewBox="0 0 50 42"><path fill="#8C4DB5" d="M24.1707 10.2237H18.6865L11.3539 28.2268H16.0496L21.4111 14.3236L26.7814 28.2268H31.4683L24.1707 10.2237Z"/><path fill="#8C4DB5" d="M19.4487 41.4641H19.3961C16.6365 41.1925 13.9821 40.3427 11.5729 39.0549C6.95605 36.5231 3.30286 32.2479 1.71719 26.79C0.105229 21.3497 0.876165 15.7604 3.40799 11.1698C4.6958 8.78692 6.46545 6.64932 8.59429 4.941L8.64685 4.91472C11.827 2.30405 15.7254 0.569441 19.9481 0.0262819C19.9744 0.0262819 20.097 0 20.1233 0L21.9105 4.34528C21.8579 4.34528 21.7352 4.37156 21.709 4.37156C17.9331 4.59933 14.4552 6.0098 11.6517 8.27004C11.5992 8.32261 11.5554 8.34889 11.5028 8.39269C11.424 8.44525 11.3802 8.48906 11.3013 8.5679H11.275C11.2488 8.59418 11.2488 8.59418 11.2225 8.62047C9.6368 9.93456 8.31394 11.529 7.35027 13.3162C5.36161 16.9168 4.76589 21.2883 6.03618 25.5373C7.28019 29.8124 10.1362 33.1327 13.7368 35.1214C15.6466 36.1639 17.7579 36.8122 19.9656 37.0049C24.7577 37.3992 29.2781 35.866 32.7561 33.0276C32.9313 32.8787 33.0803 32.7297 33.2555 32.6071L35.0164 36.9524C30.7237 40.2464 25.2395 41.981 19.4487 41.4641Z"/></svg>